<svg width="35" height="35" viewBox="0 0 35 35" fill="none" xmlns="http://www.w3.org/2000/svg">
<g id="info">
<mask id="mask0_1538_4362" style="mask-type:alpha" maskUnits="userSpaceOnUse" x="0" y="0" width="35" height="35">
<rect id="Bounding box" width="35" height="35" fill="#D9D9D9"/>
</mask>
<g mask="url(#mask0_1538_4362)">
<path id="info_2" d="M16.042 24.792H18.9587V16.042H16.042V24.792ZM17.5003 13.1253C17.9135 13.1253 18.2599 12.9856 18.5394 12.7061C18.8189 12.4265 18.9587 12.0802 18.9587 11.667C18.9587 11.2538 18.8189 10.9074 18.5394 10.6279C18.2599 10.3484 17.9135 10.2087 17.5003 10.2087C17.0871 10.2087 16.7408 10.3484 16.4613 10.6279C16.1817 10.9074 16.042 11.2538 16.042 11.667C16.042 12.0802 16.1817 12.4265 16.4613 12.7061C16.7408 12.9856 17.0871 13.1253 17.5003 13.1253ZM17.5003 32.0837C15.483 32.0837 13.5871 31.7008 11.8128 30.9352C10.0385 30.1696 8.49512 29.1305 7.18262 27.818C5.87012 26.5055 4.83105 24.9621 4.06543 23.1878C3.2998 21.4135 2.91699 19.5177 2.91699 17.5003C2.91699 15.483 3.2998 13.5871 4.06543 11.8128C4.83105 10.0385 5.87012 8.49512 7.18262 7.18262C8.49512 5.87012 10.0385 4.83105 11.8128 4.06543C13.5871 3.2998 15.483 2.91699 17.5003 2.91699C19.5177 2.91699 21.4135 3.2998 23.1878 4.06543C24.9621 4.83105 26.5055 5.87012 27.818 7.18262C29.1305 8.49512 30.1696 10.0385 30.9352 11.8128C31.7008 13.5871 32.0837 15.483 32.0837 17.5003C32.0837 19.5177 31.7008 21.4135 30.9352 23.1878C30.1696 24.9621 29.1305 26.5055 27.818 27.818C26.5055 29.1305 24.9621 30.1696 23.1878 30.9352C21.4135 31.7008 19.5177 32.0837 17.5003 32.0837ZM17.5003 29.167C20.7573 29.167 23.5159 28.0368 25.7764 25.7764C28.0368 23.5159 29.167 20.7573 29.167 17.5003C29.167 14.2434 28.0368 11.4847 25.7764 9.22428C23.5159 6.96387 20.7573 5.83366 17.5003 5.83366C14.2434 5.83366 11.4847 6.96387 9.22428 9.22428C6.96387 11.4847 5.83366 14.2434 5.83366 17.5003C5.83366 20.7573 6.96387 23.5159 9.22428 25.7764C11.4847 28.0368 14.2434 29.167 17.5003 29.167Z" fill="#1C1B1F"/>
</g>
</g>
</svg>
