<svg width="35" height="35" viewBox="0 0 35 35" fill="none" xmlns="http://www.w3.org/2000/svg">
<g id="person_pin_circle">
<mask id="mask0_1538_4316" style="mask-type:alpha" maskUnits="userSpaceOnUse" x="0" y="0" width="35" height="35">
<rect id="Bounding box" width="35" height="35" fill="#D9D9D9"/>
</mask>
<g mask="url(#mask0_1538_4316)">
<path id="person_pin_circle_2" d="M17.4997 21.8753C18.8608 21.8753 20.0882 21.5411 21.182 20.8727C22.2757 20.2043 23.1386 19.3232 23.7705 18.2295C22.9198 17.5246 21.9597 16.9838 20.8903 16.6071C19.8209 16.2304 18.6906 16.042 17.4997 16.042C16.3087 16.042 15.1785 16.2304 14.109 16.6071C13.0396 16.9838 12.0795 17.5246 11.2288 18.2295C11.8608 19.3232 12.7236 20.2043 13.8174 20.8727C14.9111 21.5411 16.1386 21.8753 17.4997 21.8753ZM17.4997 14.5837C18.3018 14.5837 18.9884 14.2981 19.5596 13.7269C20.1308 13.1557 20.4163 12.4691 20.4163 11.667C20.4163 10.8649 20.1308 10.1783 19.5596 9.6071C18.9884 9.03592 18.3018 8.75033 17.4997 8.75033C16.6976 8.75033 16.011 9.03592 15.4398 9.6071C14.8686 10.1783 14.583 10.8649 14.583 11.667C14.583 12.4691 14.8686 13.1557 15.4398 13.7269C16.011 14.2981 16.6976 14.5837 17.4997 14.5837ZM17.4997 28.2191C20.465 25.4969 22.6646 23.0238 24.0986 20.7998C25.5327 18.5758 26.2497 16.601 26.2497 14.8753C26.2497 12.226 25.4051 10.0567 23.7158 8.36751C22.0266 6.67828 19.9545 5.83366 17.4997 5.83366C15.0448 5.83366 12.9728 6.67828 11.2835 8.36751C9.59429 10.0567 8.74967 12.226 8.74967 14.8753C8.74967 16.601 9.46669 18.5758 10.9007 20.7998C12.3347 23.0238 14.5344 25.4969 17.4997 28.2191ZM17.4997 32.0837C13.5865 28.7538 10.6637 25.6609 8.73145 22.805C6.79915 19.9491 5.83301 17.3059 5.83301 14.8753C5.83301 11.2295 7.00575 8.32498 9.35124 6.16178C11.6967 3.99859 14.4129 2.91699 17.4997 2.91699C20.5865 2.91699 23.3026 3.99859 25.6481 6.16178C27.9936 8.32498 29.1663 11.2295 29.1663 14.8753C29.1663 17.3059 28.2002 19.9491 26.2679 22.805C24.3356 25.6609 21.4129 28.7538 17.4997 32.0837Z" fill="#1C1B1F"/>
</g>
</g>
</svg>
